<svg width="458" height="283" xmlns="http://www.w3.org/2000/svg" xmlns:xlink="http://www.w3.org/1999/xlink" overflow="hidden"><defs><clipPath id="clip0"><rect x="151" y="367" width="458" height="283"/></clipPath><linearGradient x1="13.1094" y1="288.777" x2="12.5105" y2="288.042" gradientUnits="userSpaceOnUse" spreadMethod="pad" id="fill1"><stop offset="0" stop-color="#797979"/><stop offset="1" stop-color="#494949"/></linearGradient><linearGradient x1="-41.1485" y1="164.543" x2="389.504" y2="166.034" gradientUnits="userSpaceOnUse" spreadMethod="pad" id="fill2"><stop offset="0" stop-color="#3EB160"/><stop offset="0.108701" stop-color="#3363C6"/><stop offset="0.192915" stop-color="#846CD8" stop-opacity="0.984314"/><stop offset="0.270859" stop-color="#9C65D6"/><stop offset="0.426763" stop-color="#E15656"/><stop offset="0.563488" stop-color="#F89B00" stop-opacity="0.87451"/><stop offset="0.684063" stop-color="#FFDD64"/><stop offset="0.808533" stop-color="#F5FF21"/><stop offset="1" stop-color="#FFFFFF"/></linearGradient><linearGradient x1="288.852" y1="326.733" x2="288.852" y2="222.98" gradientUnits="userSpaceOnUse" spreadMethod="pad" id="fill3"><stop offset="0" stop-color="#F8F3B0"/><stop offset="1" stop-color="#F4C286"/></linearGradient><linearGradient x1="284.786" y1="224.706" x2="282.473" y2="348.23" gradientUnits="userSpaceOnUse" spreadMethod="pad" id="fill4"><stop offset="0" stop-color="#FBF0D6"/><stop offset="1" stop-color="#EA8C1B"/></linearGradient></defs><g clip-path="url(#clip0)" transform="translate(-151 -367)"><path d="M-20.6723 247.765C-25.7839 247.685-29.9371 248.803-32.0935 250.32-34.2499 251.838-39.681 255.512-39.681 263.179-39.681 267.158-38.483 275.958-27.7007 276.038-26.1034 278.594-24.1865 281.629-22.8287 282.348-21.4709 283.067-19.2346 282.667-18.4359 283.386-17.6372 284.105-16.6792 284.974-14.4425 284.904-11.8867 284.824-13.0847 283.226-12.2061 282.188-11.3276 281.15-10.9699 282.264-10.7685 280.351-10.6088 278.833-13.7997 278.2-13.8834 276.358-14.0432 272.843-10.2893 275.16-9.49062 274.281-8.69194 273.402-9.25102 271.006-9.25102 270.368-9.25102 269.728-7.41401 269.968-7.41401 268.291-7.41401 266.614-11.1679 262.061-11.1679 260.783-11.1679 259.505-9.96982 259.186-9.96982 257.269-9.96982 256.151-12.5256 248.164-20.6723 247.765Z" stroke="#000000" stroke-width="0.894531" fill="#FFFFFF" transform="matrix(1 0 0 1.00116 201.094 273.954)"/><path d="M15.0792 286.316C15.0792 286.316 22.6569 295.368 24.344 297.658 26.5804 300.693 22.9064 303.568 20.9895 301.97 18.2074 299.652 10.2871 289.511 10.2871 289.511 8.05078 289.511 5.51555 287.887 5.17549 285.677 4.53653 281.524 7.57158 278.968 10.4468 279.128 13.3221 279.288 16.8363 282.802 15.0792 286.316Z" stroke="#000000" stroke-width="0.447266" fill="url(#fill1)" transform="matrix(1 0 0 1.00116 201.094 273.954)"/><path d="M-6.59663 284.999C-3.37117 283.405-1.29448 277.542-2.86486 273.745" stroke="#808080" stroke-width="0.894531" fill="none" transform="matrix(1 0 0 1.00116 201.094 273.954)"/><path d="M-8.56196 280.847C-6.99027 280.016-5.97838 276.956-6.74356 274.975" stroke="#808080" stroke-width="0.894531" fill="none" transform="matrix(1 0 0 1.00116 201.094 273.954)"/><path d="M-3.92956 288.932C1.14372 286.607 4.41009 278.055 1.94008 272.518" stroke="#808080" stroke-width="0.894531" fill="none" transform="matrix(1 0 0 1.00116 201.094 273.954)"/><path d="M-0.942988 293.426C6.46858 290.193 11.2404 278.301 7.63201 270.602" stroke="#808080" stroke-width="0.894531" fill="none" transform="matrix(1 0 0 1.00116 201.094 273.954)"/><path d="M-41.1484 152.616 389.504 152.616 389.504 179.451-41.1484 179.451Z" stroke="#000000" stroke-width="0.447266" fill="url(#fill2)" transform="matrix(1 0 0 1.00116 201.094 273.954)"/><path d="M469.103 324.217C473.161 322.318 475.77 315.332 473.794 310.809" stroke="#808080" stroke-width="0.811132" fill="none" transform="matrix(0.890671 -0.454648 0.339161 1.19395 59.175 395.601)"/><path d="M467.929 319.15C469.58 318.277 470.641 315.066 469.838 312.988" stroke="#808080" stroke-width="0.811132" fill="none" transform="matrix(0.890671 -0.454648 0.339161 1.19395 59.175 395.601)"/><path d="M472.79 327.633C478.112 325.193 481.542 316.22 478.947 310.41" stroke="#808080" stroke-width="0.811132" fill="none" transform="matrix(0.890671 -0.454648 0.339161 1.19395 59.175 395.601)"/><path d="M476.812 330.985C483.917 327.785 488.492 316.018 485.034 308.399" stroke="#808080" stroke-width="0.811132" fill="none" transform="matrix(0.890671 -0.454648 0.339161 1.19395 59.175 395.601)"/><path d="M440.237 178.842 412.762 199.608 440.237 219.416 440.237 178.842Z" stroke="#000000" stroke-width="0.894531" fill="#6B6B6B" transform="matrix(1 0 0 1.00116 142.055 359.835)"/><path d="M360.113 277.211 369.697 277.211 369.697 307.881 360.113 307.881Z" stroke="#000000" stroke-width="0.894531" fill="#C2C2C2" transform="matrix(1 0 0 1.00116 192.148 266.79)"/><path d="M354.042 300.373C348.292 308.305 345.26 303.904 344.458 309.494 343.796 314.117 363.308 314.65 355.321 319.805 347.333 324.961 342.861 324.167 343.5 327.737 344.139 331.306 354.467 331.851 363.308 333.99 371.711 336.022 380.08 336.425 380.24 340.031 380.45 344.785 378.962 347.566 368.419 347.169 357.876 346.772 351.806 346.376 351.806 346.376" stroke="#000000" stroke-width="0.894531" fill="none" transform="matrix(1 0 0 1.00116 201.094 273.954)"/><path d="M243.671 317.326C238.475 317.326 232.069 320.765 232.647 324.103 233.357 328.202 241.182 330.698 241.182 335.894 241.182 341.09 242.493 354.462 235.281 350.231 228.36 346.171 223.279 352.424 219.951 350.032 217.72 348.428 218.541 342.402 218.541 342.402" stroke="#000000" stroke-width="0.894531" fill="none" transform="matrix(1 0 0 1.00116 201.094 273.954)"/><path d="M215.071 342.065 219.224 273.058 220.821 342.384 215.071 342.065Z" stroke="#000000" stroke-width="0.894531" fill="#FFFFFF" transform="matrix(1 0 0 1.00116 201.094 273.954)"/><path d="M226.502 248.652 189.455 285.7" stroke="#000000" stroke-width="0.894531" fill="#FFFFFF" transform="matrix(1 0 0 1.00116 201.094 273.954)"/><path d="M98.8873 231.108 191.359 231.108 191.359 333.966 98.8873 333.966Z" stroke="#000000" stroke-width="0.894531" fill="#F8F4C1" transform="matrix(1 0 0 1.00116 201.094 273.954)"/><path d="M242.616 223.428 335.088 223.428 335.088 326.286 242.616 326.286Z" stroke="#000000" stroke-width="0.894531" fill="url(#fill3)" transform="matrix(1 0 0 1.00116 201.094 273.954)"/><path d="M282.978 223.802 282.978 342.628 278.009 342.628 286.938 347.783 286.938 223.351 282.978 223.802Z" fill="url(#fill4)" transform="matrix(1 0 0 1.00116 201.094 273.954)"/><path d="M249.167 229.076 328.988 229.076 328.988 247.445 249.167 247.445Z" fill="#FFFFFF" transform="matrix(1 0 0 1.00116 201.094 273.954)"/><path d="M248.038 268.383 327.859 268.383 327.859 293.078 248.038 293.078Z" fill="#FFFFFF" transform="matrix(1 0 0 1.00116 201.094 273.954)"/><path d="M99.1973 249.736 101.085 252.132 102.972 249.097 104.86 253.25 106.747 245.423 108.635 256.445C108.635 256.445 110.362 239.832 110.522 241.749 110.682 243.666 112.41 260.918 112.41 260.918 112.41 260.918 113.818 235.519 114.297 239.034 114.776 242.548 116.185 261.397 116.185 261.397L118.072 239.673 119.96 258.681 121.847 242.708 123.735 253.73 125.622 247.659 127.51 252.612 129.398 249.257 131.285 251.972 133.172 249.097 135.06 252.452 136.947 246.541 138.835 255.487 140.722 241.749 142.61 258.522 144.498 239.832 146.385 260.119 148.273 238.874 150.16 258.362 152.048 243.507 153.935 252.931 155.822 247.18 157.71 250.854 159.598 247.819 161.485 251.014 163.373 248.299 165.26 251.014 167.148 246.861 169.035 253.41 170.923 241.909 172.81 258.043 174.698 238.714 176.585 260.439 178.473 238.395 180.36 258.043 182.248 243.826 184.135 253.091 186.023 247.819 187.91 251.493 189.798 248.618 191.685 251.014" stroke="#FFAE40" stroke-width="0.894531" stroke-linecap="round" stroke-linejoin="round" fill="none" transform="matrix(1 0 0 1.00116 201.094 273.954)"/><path d="M99.5166 300.533 101.274 291.268 103.67 309.318 106.705 291.268 108.143 309.318 109.899 291.268 111.657 309.318 112.615 291.268 113.574 309.318 114.532 291.268 115.65 309.318 116.768 291.268 117.567 309.318 119.004 291.268 120.283 309.318 121.401 291.268 123.317 309.318 125.075 291.268 127.151 309.318 129.228 291.268 131.464 309.318 134.02 291.268 136.256 309.318 138.173 291.268 139.93 309.318 141.208 291.268 143.125 309.318 143.924 291.268 145.042 309.318 145.361 291.268 146.479 309.318 147.438 291.268 148.556 309.318 149.674 291.268 151.911 309.318 153.029 291.268 154.946 309.318 156.383 291.268 159.099 309.318 161.495 291.268 163.252 309.318 165.967 291.268 168.204 309.318 169.801 291.268 171.239 309.318 172.517 291.268 173.475 309.318 174.913 291.268 176.191 309.318 177.469 291.268 178.427 309.318 180.503 291.268 182.58 309.318 184.497 291.268 185.935 309.318 188.331 291.268 190.567 309.318 191.366 304.047" stroke="#FF4040" stroke-width="0.894531" stroke-linecap="round" stroke-linejoin="round" fill="none" transform="matrix(1 0 0 1.00116 201.094 273.954)"/><path d="M88.335 236.508 97.9194 159.514 86.8974 152.326 86.8974 148.492 112.456 148.492 112.456 154.402 102.207 159.428 112.775 236.348 109.899 236.348 100.156 157.597 110.059 152.166 90.5713 152.166 99.6763 157.438 91.5298 236.508 88.335 236.508Z" stroke="#000000" stroke-width="0.894531" stroke-linecap="round" stroke-linejoin="round" fill="#FFFFFF" transform="matrix(1 0 0 1.00116 151 367)"/><path d="M101.114 165.744 99.0376 167.98 101.913 171.654 97.9194 174.529 103.031 179.641 96.4815 185.392 104.788 192.899 95.3633 201.845 106.865 212.867 92.4883 225.805 109.58 236.667" stroke="#000000" stroke-width="0.894531" stroke-linecap="round" stroke-linejoin="round" fill="none" transform="matrix(1 0 0 1.00116 151 367)"/><path d="M94.7246 236.348 108.462 225.805 93.9258 212.228 105.107 201.206 96.6411 192.42 103.51 185.232 97.7593 179.481 102.232 175.009 98.3984 171.015 101.593 167.98 98.7178 165.105" stroke="#000000" stroke-width="0.894531" stroke-linecap="round" stroke-linejoin="round" fill="none" transform="matrix(1 0 0 1.00116 151 367)"/><path d="M91.8491 141.783C96.0024 130.602 109.852 122.52 122.359 132.838 135.522 143.697 125.713 165.584 113.733 165.424" stroke="#CCCCCC" stroke-width="2.68359" stroke-linecap="round" stroke-linejoin="round" fill="none" transform="matrix(1 0 0 1.00116 151 367)"/><path d="M33.2841 232.434C39.35 216.108 59.5789 204.308 77.8457 219.373 97.0714 235.228 82.745 267.185 65.2471 266.952" stroke="#A9A9A9" stroke-width="3.57812" stroke-linecap="round" stroke-linejoin="round" fill="none" transform="matrix(1 0 0 1.00116 201.094 273.954)"/><path d="M35.2409 75.7444 35.2409 88.3949" stroke="#353535" stroke-width="0.894531" stroke-linecap="round" stroke-linejoin="round" fill="none" transform="matrix(1 0 0 1.00116 151 367)"/><path d="M7.63617 168.682 7.63617 181.333" stroke="#353535" stroke-width="0.894531" stroke-linecap="round" stroke-linejoin="round" fill="none" transform="matrix(1 0 0 1.00116 201.094 273.954)"/><path d="M30.1252 168.682 30.1252 181.333" stroke="#353535" stroke-width="0.894531" stroke-linecap="round" stroke-linejoin="round" fill="none" transform="matrix(1 0 0 1.00116 201.094 273.954)"/><path d="M52.6141 168.682 52.6141 181.333" stroke="#353535" stroke-width="0.894531" stroke-linecap="round" stroke-linejoin="round" fill="none" transform="matrix(1 0 0 1.00116 201.094 273.954)"/><path d="M75.1031 168.682 75.1031 181.333" stroke="#353535" stroke-width="0.894531" stroke-linecap="round" stroke-linejoin="round" fill="none" transform="matrix(1 0 0 1.00116 201.094 273.954)"/><path d="M97.5925 168.682 97.5925 181.333" stroke="#353535" stroke-width="0.894531" stroke-linecap="round" stroke-linejoin="round" fill="none" transform="matrix(1 0 0 1.00116 201.094 273.954)"/><path d="M120.081 168.682 120.081 181.333" stroke="#353535" stroke-width="0.894531" stroke-linecap="round" stroke-linejoin="round" fill="none" transform="matrix(1 0 0 1.00116 201.094 273.954)"/><path d="M142.57 168.682 142.57 181.333" stroke="#353535" stroke-width="0.894531" stroke-linecap="round" stroke-linejoin="round" fill="none" transform="matrix(1 0 0 1.00116 201.094 273.954)"/><path d="M165.059 168.682 165.059 181.333" stroke="#353535" stroke-width="0.894531" stroke-linecap="round" stroke-linejoin="round" fill="none" transform="matrix(1 0 0 1.00116 201.094 273.954)"/><path d="M187.548 168.682 187.548 181.333" stroke="#353535" stroke-width="0.894531" stroke-linecap="round" stroke-linejoin="round" fill="none" transform="matrix(1 0 0 1.00116 201.094 273.954)"/><path d="M210.037 168.682 210.037 181.333" stroke="#353535" stroke-width="0.894531" stroke-linecap="round" stroke-linejoin="round" fill="none" transform="matrix(1 0 0 1.00116 201.094 273.954)"/><path d="M232.527 168.682 232.527 181.333" stroke="#353535" stroke-width="0.894531" stroke-linecap="round" stroke-linejoin="round" fill="none" transform="matrix(1 0 0 1.00116 201.094 273.954)"/><path d="M255.016 168.682 255.016 181.333" stroke="#353535" stroke-width="0.894531" stroke-linecap="round" stroke-linejoin="round" fill="none" transform="matrix(1 0 0 1.00116 201.094 273.954)"/><path d="M277.505 168.682 277.505 181.333" stroke="#353535" stroke-width="0.894531" stroke-linecap="round" stroke-linejoin="round" fill="none" transform="matrix(1 0 0 1.00116 201.094 273.954)"/><path d="M299.994 168.682 299.994 181.333" stroke="#353535" stroke-width="0.894531" stroke-linecap="round" stroke-linejoin="round" fill="none" transform="matrix(1 0 0 1.00116 201.094 273.954)"/><path d="M322.483 168.682 322.483 181.333" stroke="#353535" stroke-width="0.894531" stroke-linecap="round" stroke-linejoin="round" fill="none" transform="matrix(1 0 0 1.00116 201.094 273.954)"/><path d="M344.971 168.682 344.971 181.333" stroke="#353535" stroke-width="0.894531" stroke-linecap="round" stroke-linejoin="round" fill="none" transform="matrix(1 0 0 1.00116 201.094 273.954)"/><path d="M367.46 168.682 367.46 181.333" stroke="#353535" stroke-width="0.894531" stroke-linecap="round" stroke-linejoin="round" fill="none" transform="matrix(1 0 0 1.00116 201.094 273.954)"/><path d="M233.957 258.366 207.979 285.022" stroke="#000000" stroke-width="0.894531" fill="#FFFFFF" transform="matrix(1 0 0 1.00116 201.094 273.954)"/><path d="M240.509 272.372 224.47 288.637" stroke="#000000" stroke-width="0.894531" fill="#FFFFFF" transform="matrix(1 0 0 1.00116 201.094 273.954)"/><path d="M240.057 283.902 202.557 261.971" stroke="#000000" stroke-width="0.894531" fill="#FFFFFF" transform="matrix(1 0 0 1.00116 201.094 273.954)"/><path d="M29.9349 329.445 70.4487 329.445 70.4487 347.815 29.9349 347.815Z" stroke="#000000" stroke-width="0.894531" fill="#FFFFFF" transform="matrix(1 0 0 1.00116 201.094 273.954)"/><text font-family="Arial,Arial_MSFontService,sans-serif" font-weight="400" font-size="18" transform="matrix(0.447266 0 0 0.447785 234.064 615)">Encoder<tspan font-size="18" x="-156.084" y="-87.0954">original </tspan><tspan font-size="18" x="-156.084" y="-69.2297">sound</tspan><tspan font-size="14" x="-83.5843" y="-165.258">(</tspan><tspan font-size="14" x="-78.5843" y="-165.258">microphone</tspan><tspan font-size="14" x="-4.58427" y="-165.258">)</tspan><tspan font-size="14" x="152.702" y="-37.9647">FM </tspan><tspan font-size="14" x="176.702" y="-37.9647">- </tspan><tspan font-size="14" x="185.702" y="-37.9647">Frequency Modulation</tspan><tspan font-size="14" x="157.195" y="-156.325">AM </tspan><tspan font-size="14" x="181.195" y="-156.325">- </tspan><tspan font-size="14" x="190.195" y="-156.325">Amplitude Modulation</tspan><tspan font-family="Times New Roman,Times New Roman_MSFontService,sans-serif" font-size="28" x="-135.714" y="-397.512">γ</tspan><tspan font-size="18" x="-56.4285" y="-395.279">X</tspan>-ray<tspan font-size="18" x="45.7148" y="-395.279">ultraviolet</tspan><tspan font-size="18" x="184.286" y="-395.279">infrared</tspan><tspan font-size="18" x="475.715" y="-395.279">radio waves</tspan><tspan font-size="18" x="533.572" y="-276.919">RECEIVER</tspan><tspan font-size="18" x="490.715" y="-234.488">Tuning</tspan><tspan font-size="12" x="490.715" y="-212.155">Tunes out all but broadcast</tspan><tspan font-size="18" x="533.572" y="-187.59">oscillator</tspan><tspan font-size="18" x="494.286" y="-145.159">Decoder</tspan><tspan font-size="12" x="495" y="-127.293">destroys anything that is </tspan><tspan font-size="12" x="495" y="-116.127">not the desired modulation</tspan><tspan font-size="18" x="505.715" y="-78.1625">Audio Amplifier</tspan><tspan font-size="12" x="525.715" y="-62.53">voume contol</tspan><tspan font-size="18" x="578.572" y="4.46643">Electrical output</tspan><tspan font-size="14" x="740" y="-33.4982">(</tspan><tspan font-size="14" x="745" y="-33.4982">speaker</tspan><tspan font-size="14" x="796" y="-33.4982">)</tspan><tspan font-size="18" x="695.143" y="-196.523">Reproduced </tspan><tspan font-size="18" x="695.143" y="-178.657">sound</tspan></text><text font-family="Arial,Arial_MSFontService,sans-serif" font-weight="400" font-size="18" transform="matrix(0 -0.447785 0.447266 0 412.521 636)">Receiveing antenna<tspan font-size="18" x="89.3286" y="-314.516">Transmitting antenna</tspan></text><text font-family="Arial,Arial_MSFontService,sans-serif" font-weight="400" font-size="18" transform="matrix(0.447266 0 0 0.447785 168.252 388)">Electromagnetic Radiation<tspan font-size="20" x="0" y="33.4982">Wavelength</tspan><tspan font-size="22" x="-1.42849" y="234.488">Frequency</tspan><tspan font-size="18" x="879.185" y="453.343">Transducer</tspan><tspan font-size="18" x="63.4702" y="323.816">Transducer</tspan></text><text font-family="Arial,Arial_MSFontService,sans-serif" font-weight="400" font-size="14" transform="matrix(0 -0.447785 0.447266 0 170.399 479)">300<tspan font-size="14" x="24.5654" y="0">EHz</tspan><tspan font-size="14" x="8.93286" y="47.4382">30</tspan><tspan font-size="14" x="24.5654" y="47.4382">EHz</tspan><tspan font-size="14" x="8.93286" y="199.938">30</tspan><tspan font-size="14" x="24.5654" y="199.938">PHz</tspan><tspan font-size="14" x="0" y="299.224">300</tspan><tspan font-size="14" x="24.5654" y="299.224">THz</tspan><tspan font-size="14" x="-2.23322" y="448.153">300</tspan><tspan font-size="14" x="22.3322" y="448.153">GHz</tspan><tspan font-size="14" x="17.8657" y="937.027">30</tspan><tspan font-size="14" x="33.4982" y="937.027">Hz</tspan><tspan font-size="14" x="120.594" y="-0.702716">1</tspan><tspan font-size="14" x="129.527" y="-0.702716">pm</tspan><tspan font-size="14" x="120.594" y="46.7354">10</tspan><tspan font-size="14" x="136.226" y="46.7354">pm</tspan><tspan font-size="14" x="120.594" y="199.236">10</tspan><tspan font-size="14" x="136.226" y="199.236">nm</tspan><tspan font-size="14" x="120.594" y="298.521">1</tspan><tspan font-size="14" x="129.527" y="298.521">μ</tspan><tspan font-size="14" x="136.226" y="298.521">m</tspan><tspan font-size="14" x="120.594" y="447.45">1</tspan><tspan font-size="14" x="129.527" y="447.45">mm</tspan><tspan font-size="14" x="120.594" y="936.324">10</tspan><tspan font-size="14" x="136.226" y="936.324">Mm</tspan></text></g></svg>